<svg width="11" height="9" viewBox="0 0 11 9" fill="none" xmlns="http://www.w3.org/2000/svg">
<path d="M0.292893 4.98542C-0.0976311 4.5949 -0.097631 3.96173 0.292893 3.57121C0.683417 3.18068 1.31658 3.18069 1.70711 3.57121L5.24264 7.10674C5.63316 7.49727 5.63316 8.13043 5.24264 8.52096C4.85212 8.91148 4.21895 8.91148 3.82843 8.52096L0.292893 4.98542Z" fill="white"/>
<path d="M9.0781 0.383658C9.41748 -0.0507277 10.0447 -0.127745 10.4791 0.211634C10.9135 0.551014 10.9905 1.17827 10.6511 1.61266L5.33159 8.42138C4.99221 8.85576 4.36495 8.93278 3.93057 8.5934C3.49618 8.25402 3.41916 7.62676 3.75854 7.19238L9.0781 0.383658Z" fill="white"/>
</svg>
