<svg width="11" height="9" viewBox="0 0 11 9" fill="none" xmlns="http://www.w3.org/2000/svg">
<path d="M0.296593 5.09072C-0.0988644 4.69194 -0.0988643 4.04541 0.296593 3.64663C0.69205 3.24786 1.33321 3.24786 1.72867 3.64663L5.30887 7.25684C5.70432 7.65561 5.70432 8.30215 5.30887 8.70092C4.91341 9.09969 4.27225 9.09969 3.87679 8.70092L0.296593 5.09072Z" fill="white"/>
<path d="M9.19277 0.391761C9.53644 -0.051799 10.1716 -0.130443 10.6115 0.216104C11.0514 0.562651 11.1294 1.20316 10.7857 1.64672L5.39894 8.59924C5.05528 9.0428 4.42009 9.12144 3.98022 8.7749C3.54035 8.42835 3.46236 7.78784 3.80602 7.34428L9.19277 0.391761Z" fill="white"/>
</svg>
