<svg width="10" height="10" viewBox="0 0 10 10" fill="none" xmlns="http://www.w3.org/2000/svg">
<path d="M0.730574 0.565477C1.04313 0.253174 1.54968 0.25338 1.86199 0.565939L9.43453 8.14467C9.74683 8.45723 9.74662 8.96378 9.43406 9.27609L9.26943 9.44059C8.95687 9.75289 8.45032 9.75269 8.13801 9.44013L0.565476 1.86139C0.253172 1.54883 0.25338 1.04228 0.565939 0.729978L0.730574 0.565477Z" fill="white"/>
<path d="M0.567645 9.30013C0.254144 8.98878 0.252405 8.48223 0.563762 8.16873L8.11285 0.567644C8.4242 0.254142 8.93075 0.252403 9.24425 0.56376L9.40724 0.725634C9.72074 1.03699 9.72248 1.54354 9.41113 1.85704L1.86204 9.45812C1.55068 9.77162 1.04414 9.77336 0.730634 9.46201L0.567645 9.30013Z" fill="white"/>
</svg>
