<svg width="10" height="10" viewBox="0 0 10 10" fill="none" xmlns="http://www.w3.org/2000/svg">
<path d="M0.427532 0.250028C0.762277 -0.0835218 1.30478 -0.0833008 1.63925 0.250522L9.74929 8.34485C10.0838 8.67868 10.0835 9.21969 9.7488 9.55324L9.57248 9.72893C9.23773 10.0625 8.69523 10.0623 8.36075 9.72844L0.250715 1.63411C-0.0837555 1.30028 -0.0835335 0.75927 0.251211 0.42572L0.427532 0.250028Z" fill="white"/>
<path d="M0.253039 9.57892C-0.0827152 9.24638 -0.0845774 8.70537 0.24888 8.37054L8.3338 0.252342C8.66726 -0.0824872 9.20976 -0.0843448 9.54552 0.248194L9.72007 0.421081C10.0558 0.75362 10.0577 1.29463 9.72423 1.62946L1.63931 9.74766C1.30585 10.0825 0.763351 10.0843 0.427597 9.75181L0.253039 9.57892Z" fill="white"/>
</svg>
